<?xml version="1.0" encoding="UTF-8" standalone="no"?>
<!-- Generator: Adobe Illustrator 22.1.0, SVG Export Plug-In . SVG Version: 6.00 Build 0)  -->

<svg
   version="1.1"
   id="Capa_1"
   x="0px"
   y="0px"
   viewBox="0 0 66.800001 55.3"
   xml:space="preserve"
   sodipodi:docname="sandwich_logo_only.svg"
   width="66.800003"
   height="55.299999"
   inkscape:version="1.1.2 (0a00cf5339, 2022-02-04)"
   xmlns:inkscape="http://www.inkscape.org/namespaces/inkscape"
   xmlns:sodipodi="http://sodipodi.sourceforge.net/DTD/sodipodi-0.dtd"
   xmlns="http://www.w3.org/2000/svg"
   xmlns:svg="http://www.w3.org/2000/svg"><defs
   id="defs42">







		</defs><sodipodi:namedview
   id="namedview40"
   pagecolor="#ffffff"
   bordercolor="#666666"
   borderopacity="1.0"
   inkscape:pageshadow="2"
   inkscape:pageopacity="0.0"
   inkscape:pagecheckerboard="0"
   showgrid="false"
   inkscape:zoom="1.2355675"
   inkscape:cx="8.0934469"
   inkscape:cy="195.05207"
   inkscape:window-width="2256"
   inkscape:window-height="1430"
   inkscape:window-x="0"
   inkscape:window-y="0"
   inkscape:window-maximized="1"
   inkscape:current-layer="Capa_1"
   fit-margin-top="0"
   fit-margin-left="0"
   fit-margin-right="0"
   fit-margin-bottom="0" />
<style
   type="text/css"
   id="style2">
	.st0{fill:url(#SVGID_1_);}
	.st1{fill:#FFFFFF;}
	.st2{fill:url(#SVGID_2_);}
</style>
<g
   id="g31"
   transform="translate(-66.9,-55.8)">
				<linearGradient
   id="SVGID_1_"
   gradientUnits="userSpaceOnUse"
   x1="63.892601"
   y1="104.3912"
   x2="136.66229"
   y2="62.377602">
					<stop
   offset="0"
   style="stop-color:#E94F1B"
   id="stop24" />
					<stop
   offset="1"
   style="stop-color:#EAB027"
   id="stop26" />
				</linearGradient>
				<path
   class="st0"
   d="M 131.6,111.1 H 69 c -1.2,0 -2.1,-1 -2.1,-2.1 0,-1.2 1,-2.1 2.1,-2.1 h 62.6 c 1.2,0 2.1,1 2.1,2.1 0,1.1 -1,2.1 -2.1,2.1 z M 125.2,98.3 H 69 c -1.2,0 -2.1,-1 -2.1,-2.1 0,-1.2 1,-2.1 2.1,-2.1 h 56.2 c 2.3,0 4.3,-1.9 4.3,-4.3 0,-2.3 -1.9,-4.3 -4.3,-4.3 H 75.4 c -4.7,0 -8.5,-3.8 -8.5,-8.5 0,-4.7 3.8,-8.5 8.5,-8.5 h 56.2 c 1.2,0 2.1,1 2.1,2.1 0,1.1 -1,2.1 -2.1,2.1 H 75.4 c -2.3,0 -4.3,1.9 -4.3,4.3 0,2.3 1.9,4.3 4.3,4.3 h 49.8 c 4.7,0 8.5,3.8 8.5,8.5 0,4.7 -3.8,8.5 -8.5,8.5 z M 131.6,60 H 69 c -1.2,0 -2.1,-1 -2.1,-2.1 0,-1.2 1,-2.1 2.1,-2.1 h 62.6 c 1.2,0 2.1,1 2.1,2.1 0,1.1 -1,2.1 -2.1,2.1 z"
   id="path29"
   style="fill:url(#SVGID_1_)" />
			</g>

</svg>
